HIERARCHY
ROOT Hips
{
  OFFSET -211.829 106.579 -219.428
  CHANNELS 6 Xposition Yposition Zposition Zrotation Xrotation Yrotation
  JOINT ToSpine
  {
    OFFSET -2.69724 7.43032 -0.144315
    CHANNELS 3 Zrotation Xrotation Yrotation
    JOINT Spine
    {
      OFFSET -0.0310711 10.7595 1.96963
      CHANNELS 3 Zrotation Xrotation Yrotation
      JOINT Spine1
      {
        OFFSET 19.9056 3.91189 0.764692
        CHANNELS 3 Zrotation Xrotation Yrotation
        JOINT Neck
        {
          OFFSET 25.9749 7.03908 -0.130764
          CHANNELS 3 Zrotation Xrotation Yrotation
          JOINT Head
          {
            OFFSET 9.52751 0.295786 -0.907742
            CHANNELS 3 Zrotation Xrotation Yrotation
            End Site
            {
              OFFSET 16.4037 0.713936 2.7358
            }
          }
        }
        JOINT LeftShoulder
        {
          OFFSET 17.7449 4.33886 11.7777
          CHANNELS 3 Zrotation Xrotation Yrotation
          JOINT LeftArm
          {
            OFFSET 0.911315 1.27913 9.80584
            CHANNELS 3 Zrotation Xrotation Yrotation
            JOINT LeftForeArm
            {
              OFFSET 28.6126 1.18197 -3.53199
              CHANNELS 3 Zrotation Xrotation Yrotation
              JOINT LeftHand
              {
                OFFSET 27.5088 0.0218783 0.327423
                CHANNELS 3 Zrotation Xrotation Yrotation
                End Site
                {
                  OFFSET 18.6038 -0.000155887 0.382096
                }
              }
            }
          }
        }
        JOINT RightShoulder
        {
          OFFSET 17.1009 2.89543 -12.2328
          CHANNELS 3 Zrotation Xrotation Yrotation
          JOINT RightArm
          {
            OFFSET 1.4228 0.178766 -10.211
            CHANNELS 3 Zrotation Xrotation Yrotation
            JOINT RightForeArm
            {
              OFFSET 28.733 1.87905 2.64907
              CHANNELS 3 Zrotation Xrotation Yrotation
              JOINT RightHand
              {
                OFFSET 27.4588 0.290562 -0.101845
                CHANNELS 3 Zrotation Xrotation Yrotation
                End Site
                {
                  OFFSET 17.8396 -0.255518 -0.000602873
                }
              }
            }
          }
        }
      }
    }
  }
  JOINT LeftUpLeg
  {
    OFFSET -5.61296 -2.22332 -10.2353
    CHANNELS 3 Zrotation Xrotation Yrotation
    JOINT LeftLeg
    {
      OFFSET 2.56703 -44.7417 -7.93097
      CHANNELS 3 Zrotation Xrotation Yrotation
      JOINT LeftFoot
      {
        OFFSET 3.16933 -46.5642 -3.96578
        CHANNELS 3 Zrotation Xrotation Yrotation
        JOINT LeftToeBase
        {
          OFFSET 0.346054 -6.02161 12.8035
          CHANNELS 3 Zrotation Xrotation Yrotation
          End Site
          {
            OFFSET 0.134235 -1.35082 5.13018
          }
        }
      }
    }
  }
  JOINT RightUpLeg
  {
    OFFSET -5.7928 -1.72406 10.6446
    CHANNELS 3 Zrotation Xrotation Yrotation
    JOINT RightLeg
    {
      OFFSET -2.57161 -44.7178 -7.85259
      CHANNELS 3 Zrotation Xrotation Yrotation
      JOINT RightFoot
      {
        OFFSET -3.10148 -46.5936 -4.03391
        CHANNELS 3 Zrotation Xrotation Yrotation
        JOINT RightToeBase
        {
          OFFSET -0.0828122 -6.13587 12.8035
          CHANNELS 3 Zrotation Xrotation Yrotation
          End Site
          {
            OFFSET -0.131328 -1.35082 5.13018
          }
        }
      }
    }
  }
}
MOTION
Frames:	15
Frame Time:	0.0333333
-66.5938 94.8606 -72.103 67.1681 -45.4741 -21.2052 -70.1915 0 88.8779 110.608 67.4861 -41.3008 0.729781 16.8963 8.32495 -174.227 19.2481 168.194 -154.927 56.2267 169.311 0.878631 -10.5328 -34.9032 -92.3095 30.7375 -113.429 -7.81903 27.5489 -5.37554 9.67946 -0.625942 -5.52447 0.362859 -1.17811 43.914 -51.8508 -33.2632 103.833 -2.32453 -7.72485 16.2687 7.09977 -0.01837 -0.693551 -23.4634 -11.8847 93.6232 -3.12564 58.3134 4.93389 8.23462 5.67369 -1.10004 -11.7833 -30.1829 4.14051 -54.3615 0.423431 81.311 158.424 79.7924 -159.774 -8.70177 0.0917714 1.22739 -1.62819 -10.2101 -5.26074 
-62.3587 96.187 -67.6457 67.4215 -45.1028 -19.6388 -70.1915 0 88.8779 109.384 66.6812 -39.7744 0.853415 15.8221 8.54611 -172.813 18.7658 167.641 -155.143 55.7153 169.072 0.900716 -10.4653 -33.3526 -83.0331 26.6427 -121.39 -3.65382 16.8993 -12.0511 12.1727 -0.882626 -6.40843 0.46898 -1.52819 44.2486 -62.8044 -33.2456 97.0492 -3.70589 -17.9885 12.4226 6.88197 -0.0177673 -0.694147 -27.96 -11.3426 92.8355 -3.20793 58.0449 4.22512 8.25165 4.49075 -1.10363 -13.6804 -33.7405 2.37663 -44.1294 -0.0985788 80.7862 169.137 64.294 -170.49 -11.8965 -2.3318 1.54202 0.446921 1.04873 -1.81651 
-58.1314 98.8679 -63.3036 67.5259 -44.9372 -17.636 -70.1915 0 88.8779 109.979 65.7212 -39.3311 0.246119 14.6661 9.77586 -171.565 18.2126 168.721 -155.418 55.4519 170.201 0.939741 -10.296 -32.3962 -68.6526 18.8101 -128.148 0.691757 -1.27492 -20.3371 14.5921 -0.868665 -4.97576 0.452528 -1.50408 42.9979 -68.7446 -33.7138 92.1561 -4.71169 -19.8872 10.7206 8.86427 -0.128866 -2.15613 -34.4398 -10.0122 91.3717 -2.8943 54.272 2.1178 7.13057 2.87628 -0.942146 -12.6749 -31.9832 3.44604 -33.3079 -0.0945018 80.1065 170.769 54.3064 -170.981 -12.4972 -1.8592 1.62063 1.9019 5.60896 -4.80324 
-53.7294 102.783 -58.7033 67.687 -45.5527 -14.5876 -70.1915 0 88.8779 111.451 64.9838 -38.1188 -0.20812 13.7978 10.9836 -170.32 17.4765 170.389 -156.299 55.0923 171.182 0.993591 -10.0353 -32.3978 -72.7314 20.8888 -126.778 1.42753 -1.16875 -27.9905 15.5367 -0.859709 -4.50906 0.34277 -1.13328 42.1474 -74.1823 -32.9093 87.6325 -6.72134 -19.1872 8.215 9.29571 -0.183662 -2.78909 -43.1143 -6.6419 90.2238 -2.39375 46.8264 -1.39435 7.30124 2.27601 -0.972131 -10.3869 -27.904 6.71331 -24.0589 1.29705 78.8123 170.977 51.2137 -170.081 -10.9818 0.57385 1.51829 2.32835 3.93315 -9.28567 
-48.9705 107.485 -54.151 68.3701 -46.2481 -10.4124 -70.1915 0 88.8779 114.659 63.675 -36.7641 -0.832968 12.8277 11.3851 -168.797 16.4588 172.311 -157.161 54.4012 171.902 1.23282 -8.83822 -31.6974 -75.6534 24.817 -124.965 2.54435 0.745939 -36.0067 14.7999 -0.719011 -3.75911 0.253243 -0.816337 40.9179 -77.6824 -32.3266 84.4538 -8.0069 -18.4873 6.31207 8.48316 -0.0843557 -1.59552 -52.3958 -3.55069 87.4681 -1.661 37.5878 -1.96448 5.50768 5.11052 -0.653163 -7.52812 -20.6235 8.66032 -18.4631 2.61597 76.7111 170.358 54.4268 -167.801 -10.1156 2.07873 1.43307 1.64544 -1.09358 -14.0036 
-44.4198 111.897 -49.626 69.0011 -44.9584 -7.04506 -70.1915 0 88.8779 115.833 62.783 -35.0408 -1.48608 11.6828 12.6133 -165.835 16.3476 173.095 -156.039 54.2515 171.866 1.3644 -8.19559 -31.9132 -75.4112 26.6528 -123.554 5.08675 3.32093 -43.1422 17.8642 -0.954879 -4.29504 0.185909 -0.561349 40.3317 -79.308 -31.8879 81.2242 -8.4019 -17.4328 5.80334 7.65813 -0.0377278 -0.982066 -57.4951 -1.02943 86.9946 -0.481909 32.2446 -0.211854 -0.64781 8.46775 0.615915 -0.339968 -0.75859 0.27034 -15.6989 2.04984 74.585 168.932 61.219 -165.112 -10.1364 0.98727 1.41798 0.506481 -5.46398 -16.2532 
-40.1601 115.606 -45.3211 69.6011 -43.3622 -5.04835 -70.1915 0 88.8779 116.059 62.7394 -33.4094 -1.64171 11.5132 13.124 -163.101 16.7427 172.645 -155.095 54.5354 171.477 1.50002 -7.51101 -31.8338 -72.5797 27.3399 -123.874 7.88793 4.91122 -50.5983 16.9455 -1.00264 -4.93317 0.202191 -0.623051 40.2146 -81.1091 -31.8065 78.0655 -9.0692 -16.2687 4.75402 7.00435 -0.0272318 -0.857581 -60.1515 1.16048 89.2354 0.409629 28.6373 4.50309 -3.01464 12.0397 1.41982 18.6355 25.6926 -22.1093 -14.6102 1.25086 73.7024 165.459 69.8622 -159.677 -9.61814 0.674215 1.34671 -1.36547 -11.2854 -18.5363 
-35.9472 118.476 -41.0149 69.1418 -42.0259 -4.19734 -70.1915 0 88.8779 115.861 63.3366 -31.1235 -2.20508 11.8883 13.0186 -161.761 17.2599 172.87 -158.159 55.5794 172.836 1.47646 -7.58583 -31.4468 -69.9707 29.2951 -122.886 13.3333 7.03481 -58.7288 15.7768 -0.927318 -4.8915 0.219022 -0.686218 39.2406 -80.9703 -32.7686 75.7748 -10.0175 -14.6935 3.59365 6.04485 -0.0268866 -0.938497 -60.0324 1.8162 87.3817 -0.114841 29.4255 6.34231 -3.33359 14.5572 1.74111 24.1287 37.6506 -18.269 -14.2445 1.51836 73.3322 153.574 79.7833 -145.424 -7.49206 2.0549 1.06703 -4.47453 -19.1945 -22.8984 
-31.6349 120.567 -36.7778 69.1946 -41.0922 -3.53767 -70.1915 0 88.8779 116.742 63.5744 -29.9349 -2.82174 12.4981 11.6167 -160.54 18.0126 171.924 -157.839 56.3213 172.661 1.54083 -7.14808 -30.6243 -66.8382 31.0972 -121.505 18.9198 6.9649 -68.4323 13.5736 -0.687016 -3.98544 0.110216 -0.251746 39.0922 -81.2476 -33.0252 73.4117 -10.704 -16.0902 2.08009 5.57075 -0.0368857 -1.22557 -59.6949 1.28689 84.8878 0.0736044 29.7648 8.15133 -4.22483 12.8306 1.77677 28.2739 42.2258 -20.6794 -15.9202 2.33038 73.4139 56.8031 85.2789 -46.9762 -5.70055 1.3445 0.832595 -5.37564 -21.0146 -24.9422 
-27.2206 121.793 -32.4557 69.1673 -40.1123 -3.02438 -70.1915 0 88.8779 117.664 63.8902 -29.0672 -2.81933 13.2388 10.1939 -161.9 18.9165 170.721 -157.151 56.9788 170.545 1.59144 -6.82012 -30.2387 -65.0294 33.1937 -119.362 24.8771 5.3967 -77.5804 9.24323 -0.579048 -5.29764 0.039895 0.00981204 39.7949 -79.887 -32.856 72.1879 -11.0732 -16.8932 1.71787 7.86787 -0.142489 -2.61915 -59.9133 1.25229 85.8832 1.68437 27.0559 6.66327 -2.56026 7.27658 0.876381 34.772 42.6591 -30.7373 -18.6521 3.09387 73.2666 12.7657 74.5719 -1.12155 -4.5527 0.998183 0.690377 -4.5839 -19.3614 -23.7851 
-23.0168 122.093 -27.9567 68.7381 -38.7735 -3.53487 -70.1915 0 88.8779 115.851 64.5671 -27.8338 -2.26907 13.4838 10.2816 -163.591 19.9759 170.431 -156.947 57.9632 169.803 1.668 -6.49482 -30.7504 -63.5423 33.9499 -115.873 28.2375 2.07412 -85.9913 6.25565 -0.406326 -5.49595 0.0714578 -0.129985 40.5846 -79.6442 -31.522 71.2752 -11.4223 -18.9374 0.852198 6.11747 -0.159221 -3.68913 -59.6608 1.29256 91.3864 3.88907 22.6794 0.381583 -1.53387 3.6951 0.386094 33.8031 43.3494 -28.4626 -21.3764 3.56139 73.6748 5.99832 62.0984 6.79255 -3.02569 3.70216 0.370973 -4.70895 -19.9087 -21.4949 
-18.8444 121.156 -23.6091 68.3235 -36.633 -3.95545 -70.1915 0 88.8779 115.225 64.5834 -28.0094 -3.01263 13.267 10.6384 -165.44 20.5891 169.957 -158.314 58.6587 169.31 1.6994 -6.42626 -31.3126 -61.5293 33.6817 -112.673 26.6675 -0.840967 -92.1689 5.97167 -0.37632 -5.27813 0.204522 -0.633804 40.777 -79.4219 -31.0216 70.5782 -12.1933 -18.4945 -0.262256 7.35901 -0.219511 -4.0986 -58.9582 1.3814 95.5173 3.55904 18.1954 -3.15253 -0.587939 4.95003 0.337067 28.0186 37.088 -26.0553 -23.9245 2.96656 73.3443 3.62591 50.3199 9.46195 -1.32757 4.71075 0.0503609 -2.87361 -15.395 -18.0748 
-14.6493 119.071 -19.3227 68.7543 -34.7887 -4.17748 -70.1915 0 88.8779 115.169 64.2839 -28.8166 -3.36457 13.2016 10.2166 -165.256 21.336 168.643 -156.87 59.1582 168.536 1.6993 -6.26787 -30.4081 -60.4441 36.8123 -110.238 26.0128 -2.2954 -95.5439 6.31292 -0.463411 -6.41306 0.268913 -0.87432 41.0287 -81.0625 -30.5051 68.9444 -12.2782 -19.0274 -0.965506 10.2627 -0.42767 -5.43607 -59.2217 0.522083 95.7251 2.96423 15.6991 1.73995 -2.69397 0.0196729 0.215741 36.7175 37.8907 -39.4141 -26.3941 2.7014 74.2463 2.46351 40.0637 9.54854 -0.181733 7.12418 -0.301357 -1.66441 -11.4498 -12.2286 
-10.5104 115.629 -15.0603 69.777 -33.0255 -3.60384 -70.1915 0 88.8779 114.927 64.2184 -29.0619 -2.69982 13.2063 10.1822 -165.509 22.0371 169.033 -157.263 59.9934 168.888 1.58199 -6.98387 -30.9926 -61.5203 38.0444 -107.775 24.4638 -2.30213 -96.0325 5.00122 -0.41466 -7.36966 0.354998 -1.20246 40.5673 -82.9502 -30.3375 67.3452 -12.1007 -17.5471 -1.13375 12.794 -0.618434 -6.16194 -58.9137 0.310247 95.8983 3.16098 18.4761 7.03497 -6.26026 -10.4364 -0.686173 50.6286 38.6068 -57.4021 -27.5621 2.9411 76.8818 2.03402 33.377 6.07445 0.559818 6.90207 -0.420876 0.728868 -0.301487 -5.78831 
-6.62949 111.457 -10.861 72.3638 -31.7055 -2.8581 -70.1915 0 88.8779 118.494 63.1106 -34.4135 -2.93705 13.2477 9.9892 -165.252 22.4364 167.376 -155.826 60.0829 167.748 1.56464 -6.88355 -29.7096 -61.7614 39.031 -106.99 23.6983 -1.68226 -94.7264 6.33913 -0.446869 -6.09857 0.315572 -1.03888 41.8607 -84.8048 -29.3389 66.0331 -11.89 -16.1611 -1.40961 13.8068 -0.652702 -6.00925 -60.0883 -1.4855 92.7933 3.23639 26.0228 1.25241 -1.27559 -9.02052 -0.713136 22.8321 28.1384 -27.895 -28.7166 3.32728 81.9247 1.68398 29.2838 0.501675 1.60674 6.99211 -0.618815 1.55155 10.0672 1.02796 
